<svg width="78" height="37" viewBox="0 0 78 37" fill="none" xmlns="http://www.w3.org/2000/svg">
<path d="M51.6331 24.1697L51.5745 24.7224H52.1303H71.65C73.0123 24.7224 74.3319 25.3275 75.3143 26.4268C76.2984 27.528 76.8594 29.0324 76.8594 30.6112C76.8594 32.19 76.2984 33.6944 75.3143 34.7956C74.3319 35.8949 73.0123 36.5 71.65 36.5H6.06873C4.70643 36.5 3.38684 35.8949 2.40442 34.7956C1.42037 33.6944 0.859375 32.19 0.859375 30.6112C0.859375 29.0324 1.42037 27.528 2.40442 26.4268C3.38684 25.3275 4.70643 24.7224 6.06873 24.7224H6.58776H7.06602L7.08727 24.2447C7.2165 21.3386 8.30947 18.6002 10.1399 16.5621C11.969 14.5254 14.3997 13.3364 16.9528 13.2083L17.4277 13.1845L17.4277 12.709C17.4278 9.83145 18.3319 7.05204 19.9728 4.85609C21.613 2.66109 23.8808 1.19278 26.3728 0.691045C28.8636 0.189563 31.4359 0.681998 33.6435 2.09104C35.853 3.50126 37.5611 5.74371 38.4561 8.43667L38.5699 8.77897H38.9306H39.3981C42.6449 8.7878 45.7695 10.2345 48.0844 12.8249C50.4004 15.4166 51.7134 18.9397 51.7219 22.6263C51.7171 23.1422 51.6875 23.6574 51.6331 24.1697Z" fill="#F5F5F5" stroke="#5F6368"/>
</svg>
