<svg width="181" height="184" viewBox="0 0 181 184" fill="none" xmlns="http://www.w3.org/2000/svg">
<path d="M97.4482 46.5878L97.5796 48.0554L97.4893 62.2136L148.581 26.2884" fill="#C5D7FF"/>
<path d="M97.4482 46.5878L97.5796 48.0554L97.4893 62.2136L148.581 26.2884" stroke="#263238" stroke-linecap="round" stroke-linejoin="round"/>
<path d="M108.527 56.4148L97.4473 46.5898L148.58 26.2904L108.527 56.4148Z" fill="#F5F5F5" stroke="#263238" stroke-linecap="round" stroke-linejoin="round"/>
<path d="M148.577 26.289L99.7974 19.2054L99.5996 40.3245L148.577 26.289Z" fill="#C5D7FF" stroke="#263238" stroke-linecap="round" stroke-linejoin="round"/>
<path d="M148.579 26.2906L108.525 56.4149L99.6016 40.3262L148.579 26.2906Z" fill="#C5D7FF" stroke="#263238" stroke-linecap="round" stroke-linejoin="round"/>
<path d="M2.36245 145.499C9.70533 146.516 75.9473 156.048 73.8127 119.789C71.3334 77.7193 22.5976 75.1612 13.4658 91.1113C4.33395 107.061 34.1702 132.981 59.1906 118.732C83.9202 104.62 85.3254 74.5863 111.449 56.0311" stroke="#263238" stroke-linecap="round" stroke-linejoin="round" stroke-dasharray="2.99 2.99"/>
</svg>
