<svg width="197" height="205" viewBox="0 0 197 205" fill="none" xmlns="http://www.w3.org/2000/svg">
<path d="M94.7601 53.8679L94.6323 55.5818L94.9879 72.0951L34.5652 30.9449" fill="#FF725E"/>
<path d="M94.7601 53.8679L94.6323 55.5818L94.9879 72.0951L34.5652 30.9449" stroke="#263238" stroke-linecap="round" stroke-linejoin="round"/>
<path d="M81.9719 65.4948L94.7637 53.8711L34.5688 30.9481L81.9719 65.4948Z" fill="#F5F5F5" stroke="#263238" stroke-linecap="round" stroke-linejoin="round"/>
<path d="M34.5677 30.9458L91.5255 21.963L92.1297 46.5942L34.5677 30.9458Z" fill="#FF725E" stroke="#263238" stroke-linecap="round" stroke-linejoin="round"/>
<path d="M34.5689 30.9453L81.972 65.4921L92.1309 46.5938L34.5689 30.9453Z" fill="#FF725E" stroke="#263238" stroke-linecap="round" stroke-linejoin="round"/>
<path d="M199.36 165.5C190.668 166.817 124.454 177.744 126.358 134.807C128.571 84.9896 186.331 81.2044 197.438 99.9351C208.545 118.666 173.606 149.8 143.683 133.329C114.107 117.015 111.921 81.5002 80.6152 59.9514" stroke="#263238" stroke-linecap="round" stroke-linejoin="round" stroke-dasharray="2.99 2.99"/>
</svg>
